<svg width="610" height="300" viewBox="0 0 610 300" fill="none" stroke="url(#paint0_linear_874_3932)" xmlns="http://www.w3.org/2000/svg">
  <rect width="610" height="300" rx="20" fill="#F4F5F6" stroke="none" />
  <mask id="mask0_874_3932" style="mask-type: alpha" maskUnits="userSpaceOnUse" x="29" y="43" width="552" height="214">
    <path d="M31.6772 256V69.6584H257.998V108.608H578.694V256" stroke-miterlimit="10" />
    <path d="M65.9023 79.089H46.6616V157.073H65.9023V79.089Z" stroke-miterlimit="10" />
    <path d="M62.6831 81.8995H49.8896V154.262H62.6831V81.8995Z" stroke-miterlimit="10" />
    <path d="M49.8896 118.081H62.6747" stroke-miterlimit="10" />
    <path d="M49.8896 109.717H62.6747" stroke-miterlimit="10" />
    <path d="M49.8896 126.436H62.6747" stroke-miterlimit="10" />
    <path d="M49.8896 145.949H62.6747" stroke-miterlimit="10" />
    <path d="M49.8896 90.2126H62.6747" stroke-miterlimit="10" />
    <path d="M102.142 79.089H82.9014V157.073H102.142V79.089Z" stroke-miterlimit="10" />
    <path d="M98.9228 81.8995H86.1294V154.262H98.9228V81.8995Z" stroke-miterlimit="10" />
    <path d="M86.1294 118.081H98.9144" stroke-miterlimit="10" />
    <path d="M86.1294 109.717H98.9144" stroke-miterlimit="10" />
    <path d="M86.1294 126.436H98.9144" stroke-miterlimit="10" />
    <path d="M86.1294 145.949H98.9144" stroke-miterlimit="10" />
    <path d="M86.1294 90.2126H98.9144" stroke-miterlimit="10" />
    <path d="M65.9023 160.357H46.6616V238.341H65.9023V160.357Z" stroke-miterlimit="10" />
    <path d="M62.6831 163.168H49.8896V235.53H62.6831V163.168Z" stroke-miterlimit="10" />
    <path d="M49.8896 199.349H62.6747" stroke-miterlimit="10" />
    <path d="M49.8896 190.985H62.6747" stroke-miterlimit="10" />
    <path d="M49.8896 207.704H62.6747" stroke-miterlimit="10" />
    <path d="M49.8896 227.217H62.6747" stroke-miterlimit="10" />
    <path d="M49.8896 171.481H62.6747" stroke-miterlimit="10" />
    <path d="M102.142 160.357H82.9014V238.341H102.142V160.357Z" stroke-miterlimit="10" />
    <path d="M98.9228 163.168H86.1294V235.53H98.9228V163.168Z" stroke-miterlimit="10" />
    <path d="M86.1294 199.349H98.9144" stroke-miterlimit="10" />
    <path d="M86.1294 190.985H98.9144" stroke-miterlimit="10" />
    <path d="M86.1294 207.704H98.9144" stroke-miterlimit="10" />
    <path d="M86.1294 227.217H98.9144" stroke-miterlimit="10" />
    <path d="M86.1294 171.481H98.9144" stroke-miterlimit="10" />
    <path d="M196.534 79.089H177.293V157.073H196.534V79.089Z" stroke-miterlimit="10" />
    <path d="M193.314 81.8995H180.521V154.262H193.314V81.8995Z" stroke-miterlimit="10" />
    <path d="M180.521 118.081H193.306" stroke-miterlimit="10" />
    <path d="M180.521 109.717H193.306" stroke-miterlimit="10" />
    <path d="M180.521 126.436H193.306" stroke-miterlimit="10" />
    <path d="M180.521 145.949H193.306" stroke-miterlimit="10" />
    <path d="M180.521 90.2126H193.306" stroke-miterlimit="10" />
    <path d="M232.773 79.089H213.533V157.073H232.773V79.089Z" stroke-miterlimit="10" />
    <path d="M229.554 81.8995H216.761V154.262H229.554V81.8995Z" stroke-miterlimit="10" />
    <path d="M216.761 118.081H229.546" stroke-miterlimit="10" />
    <path d="M216.761 109.717H229.546" stroke-miterlimit="10" />
    <path d="M216.761 126.436H229.546" stroke-miterlimit="10" />
    <path d="M216.761 145.949H229.546" stroke-miterlimit="10" />
    <path d="M216.761 90.2126H229.546" stroke-miterlimit="10" />
    <path d="M196.534 160.357H177.293V238.341H196.534V160.357Z" stroke-miterlimit="10" />
    <path d="M193.314 163.168H180.521V235.53H193.314V163.168Z" stroke-miterlimit="10" />
    <path d="M180.521 199.349H193.306" stroke-miterlimit="10" />
    <path d="M180.521 190.985H193.306" stroke-miterlimit="10" />
    <path d="M180.521 207.704H193.306" stroke-miterlimit="10" />
    <path d="M180.521 227.217H193.306" stroke-miterlimit="10" />
    <path d="M180.521 171.481H193.306" stroke-miterlimit="10" />
    <path d="M232.773 160.357H213.533V238.341H232.773V160.357Z" stroke-miterlimit="10" />
    <path d="M229.554 163.168H216.761V235.53H229.554V163.168Z" stroke-miterlimit="10" />
    <path d="M216.761 199.349H229.546" stroke-miterlimit="10" />
    <path d="M216.761 190.985H229.546" stroke-miterlimit="10" />
    <path d="M216.761 207.704H229.546" stroke-miterlimit="10" />
    <path d="M216.761 227.217H229.546" stroke-miterlimit="10" />
    <path d="M216.761 171.481H229.546" stroke-miterlimit="10" />
    <path d="M339.807 117.183H320.566V195.167H339.807V117.183Z" stroke-miterlimit="10" />
    <path d="M336.587 119.994H323.794V192.357H336.587V119.994Z" stroke-miterlimit="10" />
    <path d="M323.794 156.175H336.579" stroke-miterlimit="10" />
    <path d="M323.794 147.811H336.579" stroke-miterlimit="10" />
    <path d="M323.794 164.531H336.579" stroke-miterlimit="10" />
    <path d="M323.794 184.044H336.579" stroke-miterlimit="10" />
    <path d="M323.794 128.307H336.579" stroke-miterlimit="10" />
    <path d="M339.807 198.452H320.566V256H339.807V198.452Z" stroke-miterlimit="10" />
    <path d="M336.579 201.262H323.794V256H336.579V201.262Z" stroke-miterlimit="10" />
    <path d="M323.794 237.444H336.579" stroke-miterlimit="10" />
    <path d="M323.794 229.08H336.579" stroke-miterlimit="10" />
    <path d="M323.794 245.799H336.579" stroke-miterlimit="10" />
    <path d="M323.794 209.575H336.579" stroke-miterlimit="10" />
    <path d="M374.782 117.183H355.542V195.167H374.782V117.183Z" stroke-miterlimit="10" />
    <path d="M371.563 119.994H358.77V192.357H371.563V119.994Z" stroke-miterlimit="10" />
    <path d="M358.77 156.175H371.555" stroke-miterlimit="10" />
    <path d="M358.77 147.811H371.555" stroke-miterlimit="10" />
    <path d="M358.77 164.531H371.555" stroke-miterlimit="10" />
    <path d="M358.77 184.044H371.555" stroke-miterlimit="10" />
    <path d="M358.77 128.307H371.555" stroke-miterlimit="10" />
    <path d="M374.782 198.452H355.542V256H374.782V198.452Z" stroke-miterlimit="10" />
    <path d="M371.555 201.262H358.77V256H371.555V201.262Z" stroke-miterlimit="10" />
    <path d="M358.77 237.444H371.555" stroke-miterlimit="10" />
    <path d="M358.77 229.08H371.555" stroke-miterlimit="10" />
    <path d="M358.77 245.799H371.555" stroke-miterlimit="10" />
    <path d="M358.77 209.575H371.555" stroke-miterlimit="10" />
    <path d="M409.758 117.183H390.517V195.167H409.758V117.183Z" stroke-miterlimit="10" />
    <path d="M406.539 119.994H393.745V192.357H406.539V119.994Z" stroke-miterlimit="10" />
    <path d="M393.745 156.175H406.53" stroke-miterlimit="10" />
    <path d="M393.745 147.811H406.53" stroke-miterlimit="10" />
    <path d="M393.745 164.531H406.53" stroke-miterlimit="10" />
    <path d="M393.745 184.044H406.53" stroke-miterlimit="10" />
    <path d="M393.745 128.307H406.53" stroke-miterlimit="10" />
    <path d="M409.758 198.452H390.517V256H409.758V198.452Z" stroke-miterlimit="10" />
    <path d="M406.53 201.262H393.745V256H406.53V201.262Z" stroke-miterlimit="10" />
    <path d="M393.745 237.444H406.53" stroke-miterlimit="10" />
    <path d="M393.745 229.08H406.53" stroke-miterlimit="10" />
    <path d="M393.745 245.799H406.53" stroke-miterlimit="10" />
    <path d="M393.745 209.575H406.53" stroke-miterlimit="10" />
    <path d="M438.412 117.183H419.171V195.167H438.412V117.183Z" stroke-miterlimit="10" />
    <path d="M435.193 119.994H422.399V192.357H435.193V119.994Z" stroke-miterlimit="10" />
    <path d="M422.399 156.175H435.184" stroke-miterlimit="10" />
    <path d="M422.399 147.811H435.184" stroke-miterlimit="10" />
    <path d="M422.399 164.531H435.184" stroke-miterlimit="10" />
    <path d="M422.399 184.044H435.184" stroke-miterlimit="10" />
    <path d="M422.399 128.307H435.184" stroke-miterlimit="10" />
    <path d="M438.412 198.452H419.171V256H438.412V198.452Z" stroke-miterlimit="10" />
    <path d="M435.184 201.262H422.399V256H435.184V201.262Z" stroke-miterlimit="10" />
    <path d="M422.399 237.444H435.184" stroke-miterlimit="10" />
    <path d="M422.399 229.08H435.184" stroke-miterlimit="10" />
    <path d="M422.399 245.799H435.184" stroke-miterlimit="10" />
    <path d="M422.399 209.575H435.184" stroke-miterlimit="10" />
    <path d="M473.388 117.183H454.147V195.167H473.388V117.183Z" stroke-miterlimit="10" />
    <path d="M470.168 119.994H457.375V192.357H470.168V119.994Z" stroke-miterlimit="10" />
    <path d="M457.375 156.175H470.16" stroke-miterlimit="10" />
    <path d="M457.375 147.811H470.16" stroke-miterlimit="10" />
    <path d="M457.375 164.531H470.16" stroke-miterlimit="10" />
    <path d="M457.375 184.044H470.16" stroke-miterlimit="10" />
    <path d="M457.375 128.307H470.16" stroke-miterlimit="10" />
    <path d="M473.388 198.452H454.147V256H473.388V198.452Z" stroke-miterlimit="10" />
    <path d="M470.16 201.262H457.375V256H470.16V201.262Z" stroke-miterlimit="10" />
    <path d="M457.375 237.444H470.16" stroke-miterlimit="10" />
    <path d="M457.375 229.08H470.16" stroke-miterlimit="10" />
    <path d="M457.375 245.799H470.16" stroke-miterlimit="10" />
    <path d="M457.375 209.575H470.16" stroke-miterlimit="10" />
    <path d="M508.363 117.183H489.123V195.167H508.363V117.183Z" stroke-miterlimit="10" />
    <path d="M505.144 119.994H492.351V192.357H505.144V119.994Z" stroke-miterlimit="10" />
    <path d="M492.351 156.175H505.136" stroke-miterlimit="10" />
    <path d="M492.351 147.811H505.136" stroke-miterlimit="10" />
    <path d="M492.351 164.531H505.136" stroke-miterlimit="10" />
    <path d="M492.351 184.044H505.136" stroke-miterlimit="10" />
    <path d="M492.351 128.307H505.136" stroke-miterlimit="10" />
    <path d="M508.363 198.452H489.123V256H508.363V198.452Z" stroke-miterlimit="10" />
    <path d="M505.136 201.262H492.351V256H505.136V201.262Z" stroke-miterlimit="10" />
    <path d="M492.351 237.444H505.136" stroke-miterlimit="10" />
    <path d="M492.351 229.08H505.136" stroke-miterlimit="10" />
    <path d="M492.351 245.799H505.136" stroke-miterlimit="10" />
    <path d="M492.351 209.575H505.136" stroke-miterlimit="10" />
    <path d="M113.436 256V81.8998H162.216V256" stroke-miterlimit="10" />
    <path d="M162.207 92.27H113.436V118.081H162.207V92.27Z" stroke-miterlimit="10" />
    <path d="M162.207 128.451H113.436V154.262H162.207V128.451Z" stroke-miterlimit="10" />
    <path d="M162.207 164.633H113.436V190.444H162.207V164.633Z" stroke-miterlimit="10" />
    <path d="M162.207 200.814H113.436V226.625H162.207V200.814Z" stroke-miterlimit="10" />
    <path d="M113.436 236.995H162.216" stroke-miterlimit="10" />
    <path d="M113.436 108.083H137.826H162.216V118.081H113.436V108.083Z" stroke-miterlimit="10" />
    <path d="M137.826 118.081V108.083" stroke-miterlimit="10" />
    <path d="M150.029 118.081V108.083" stroke-miterlimit="10" />
    <path d="M126.086 118.081V108.083" stroke-miterlimit="10" />
    <path d="M162.216 99.7026H122.285V118.081" stroke-miterlimit="10" />
    <path d="M113.436 92.27L122.285 99.7026" stroke-miterlimit="10" />
    <path d="M113.436 144.264H137.826H162.216V154.262H113.436V144.264Z" stroke-miterlimit="10" />
    <path d="M137.826 154.262V144.264" stroke-miterlimit="10" />
    <path d="M150.029 154.262V144.264" stroke-miterlimit="10" />
    <path d="M126.086 154.262V144.264" stroke-miterlimit="10" />
    <path d="M162.216 135.884H122.285V154.262" stroke-miterlimit="10" />
    <path d="M113.436 128.451L122.285 135.884" stroke-miterlimit="10" />
    <path d="M113.436 180.446H137.826H162.216V190.435H113.436V180.446Z" stroke-miterlimit="10" />
    <path d="M137.826 190.435V180.446" stroke-miterlimit="10" />
    <path d="M150.029 190.435V180.446" stroke-miterlimit="10" />
    <path d="M126.086 190.435V180.446" stroke-miterlimit="10" />
    <path d="M162.216 172.065H122.285V190.435" stroke-miterlimit="10" />
    <path d="M113.436 164.633L122.285 172.065" stroke-miterlimit="10" />
    <path d="M113.436 216.619H137.826H162.216V226.616H113.436V216.619Z" stroke-miterlimit="10" />
    <path d="M137.826 226.616V216.619" stroke-miterlimit="10" />
    <path d="M150.029 226.616V216.619" stroke-miterlimit="10" />
    <path d="M126.086 226.616V216.619" stroke-miterlimit="10" />
    <path d="M162.216 208.246H122.285V226.616" stroke-miterlimit="10" />
    <path d="M113.436 200.814L122.285 208.246" stroke-miterlimit="10" />
    <path d="M113.436 252.8H137.826H162.216" stroke-miterlimit="10" />
    <path d="M137.826 256V252.8" stroke-miterlimit="10" />
    <path d="M150.029 256V252.8" stroke-miterlimit="10" />
    <path d="M126.086 256V252.8" stroke-miterlimit="10" />
    <path d="M162.216 244.419H122.285V256" stroke-miterlimit="10" />
    <path d="M113.436 236.995L122.285 244.419" stroke-miterlimit="10" />
    <path d="M257.99 66.9749H31.6772V69.6584H257.99V66.9749Z" stroke-miterlimit="10" />
    <path d="M259.667 64.1732H30V66.9753H259.667V64.1732Z" stroke-miterlimit="10" />
    <path d="M578.694 105.925H257.998V108.608H578.694V105.925Z" stroke-miterlimit="10" />
    <path d="M580 103.122H257.998V105.925H580V103.122Z" stroke-miterlimit="10" />
    <path d="M243.384 48.639H62.6748V64.1731H243.384V48.639Z" stroke-miterlimit="10" />
    <path d="M243.384 46.4719H62.6748V48.6475H243.384V46.4719Z" stroke-miterlimit="10" />
    <path d="M245.778 44H60.29V46.4719H245.778V44Z" stroke-miterlimit="10" />
    <path d="M166.624 56.41H137.826V64.1728H166.624V56.41Z" stroke-miterlimit="10" />
    <path d="M110.806 56.41H96.4116V64.1728H110.806V56.41Z" stroke-miterlimit="10" />
    <path d="M110.806 59.2208H96.4116" stroke-miterlimit="10" />
    <path d="M199.484 56.41H185.089V64.1728H199.484V56.41Z" stroke-miterlimit="10" />
    <path d="M199.492 59.2208H185.089" stroke-miterlimit="10" />
    <path d="M235.268 56.41H220.874V64.1728H235.268V56.41Z" stroke-miterlimit="10" />
    <path d="M235.268 59.2208H220.874" stroke-miterlimit="10" />
    <path d="M166.624 59.2208H137.826" stroke-miterlimit="10" />
    <path d="M245.778 44L254.324 64.1732" stroke-miterlimit="10" />
    <path d="M245.778 46.4719L253.279 64.1731" stroke-miterlimit="10" />
    <path d="M243.384 48.639L249.528 64.1731" stroke-miterlimit="10" />
    <path d="M259.667 64.1732L273.303 103.123" stroke-miterlimit="10" />
    <path d="M259.667 66.9749L272.326 103.122" stroke-miterlimit="10" />
    <path d="M257.998 69.6584L269.072 103.122" stroke-miterlimit="10" />
    <path d="M257.998 256V120.654H306.778V256" stroke-miterlimit="10" />
    <path d="M306.77 131.025H257.998V156.836H306.77V131.025Z" stroke-miterlimit="10" />
    <path d="M306.77 167.206H257.998V193.017H306.77V167.206Z" stroke-miterlimit="10" />
    <path d="M306.77 203.387H257.998V229.198H306.77V203.387Z" stroke-miterlimit="10" />
    <path d="M257.998 256V239.569H306.778V256" stroke-miterlimit="10" />
    <path d="M257.998 146.838H282.388H306.778V156.836H257.998V146.838Z" stroke-miterlimit="10" />
    <path d="M282.388 156.836V146.838" stroke-miterlimit="10" />
    <path d="M294.592 156.836V146.838" stroke-miterlimit="10" />
    <path d="M270.648 156.836V146.838" stroke-miterlimit="10" />
    <path d="M306.778 138.457H266.847V156.836" stroke-miterlimit="10" />
    <path d="M257.998 131.025L266.847 138.457" stroke-miterlimit="10" />
    <path d="M257.998 183.02H282.388H306.778V193.017H257.998V183.02Z" stroke-miterlimit="10" />
    <path d="M282.388 193.017V183.02" stroke-miterlimit="10" />
    <path d="M294.592 193.017V183.02" stroke-miterlimit="10" />
    <path d="M270.648 193.017V183.02" stroke-miterlimit="10" />
    <path d="M306.778 174.639H266.847V193.017" stroke-miterlimit="10" />
    <path d="M257.998 167.206L266.847 174.639" stroke-miterlimit="10" />
    <path d="M257.998 219.201H282.388H306.778V229.198H257.998V219.201Z" stroke-miterlimit="10" />
    <path d="M282.388 229.198V219.201" stroke-miterlimit="10" />
    <path d="M294.592 229.198V219.201" stroke-miterlimit="10" />
    <path d="M270.648 229.198V219.201" stroke-miterlimit="10" />
    <path d="M306.778 210.82H266.847V229.198" stroke-miterlimit="10" />
    <path d="M257.998 203.387L266.847 210.82" stroke-miterlimit="10" />
    <path d="M306.778 247.001H266.847V256" stroke-miterlimit="10" />
    <path d="M257.998 239.569L266.847 247.001" stroke-miterlimit="10" />
    <path d="M519.261 256V120.654H568.041V256" stroke-miterlimit="10" />
    <path d="M568.033 131.025H519.261V156.836H568.033V131.025Z" stroke-miterlimit="10" />
    <path d="M568.033 167.206H519.261V193.017H568.033V167.206Z" stroke-miterlimit="10" />
    <path d="M568.033 203.387H519.261V229.198H568.033V203.387Z" stroke-miterlimit="10" />
    <path d="M519.261 239.569H568.041" stroke-miterlimit="10" />
    <path d="M519.261 146.838H543.651H568.041V156.836H519.261V146.838Z" stroke-miterlimit="10" />
    <path d="M543.651 156.836V146.838" stroke-miterlimit="10" />
    <path d="M555.854 156.836V146.838" stroke-miterlimit="10" />
    <path d="M531.911 156.836V146.838" stroke-miterlimit="10" />
    <path d="M568.041 138.457H528.11V156.836" stroke-miterlimit="10" />
    <path d="M519.261 131.025L528.11 138.457" stroke-miterlimit="10" />
    <path d="M519.261 183.02H543.651H568.041V193.017H519.261V183.02Z" stroke-miterlimit="10" />
    <path d="M543.651 193.017V183.02" stroke-miterlimit="10" />
    <path d="M555.854 193.017V183.02" stroke-miterlimit="10" />
    <path d="M531.911 193.017V183.02" stroke-miterlimit="10" />
    <path d="M568.041 174.639H528.11V193.017" stroke-miterlimit="10" />
    <path d="M519.261 167.206L528.11 174.639" stroke-miterlimit="10" />
    <path d="M519.261 219.201H543.651H568.041V229.198H519.261V219.201Z" stroke-miterlimit="10" />
    <path d="M543.651 229.198V219.201" stroke-miterlimit="10" />
    <path d="M555.854 229.198V219.201" stroke-miterlimit="10" />
    <path d="M531.911 229.198V219.201" stroke-miterlimit="10" />
    <path d="M568.041 210.82H528.11V229.198" stroke-miterlimit="10" />
    <path d="M519.261 203.387L528.11 210.82" stroke-miterlimit="10" />
    <path d="M568.041 247.001H528.11" stroke-miterlimit="10" />
    <path d="M519.261 239.569L528.11 247.001" stroke-miterlimit="10" />
  </mask>
  <g mask="url(#mask0_874_3932)">
    <rect x="30" y="44" width="550" height="212" fill="url(#paint0_linear_874_3932)" />
  </g>
  <defs>
    <linearGradient id="paint0_linear_874_3932" x1="0" y1="0" x2="100%" y2="0" gradientUnits="userSpaceOnUse">
      <stop offset="-2" stop-color="#dfe0e1">
        <animate dur="2s" attributeName="offset" fill="freeze" from="-2" to="1" repeatCount="indefinite" />
      </stop>
      <stop offset="-1" stop-color="#b3b4b5">
        <animate dur="2s" attributeName="offset" fill="freeze" from="-1" to="2" repeatCount="indefinite" />
      </stop>
      <stop offset="0" stop-color="#dfe0e1">
        <animate dur="2s" attributeName="offset" fill="freeze" from="0" to="3" repeatCount="indefinite" />
      </stop>
    </linearGradient>
  </defs>
</svg>
