<svg width="28" height="28" viewBox="0 0 28 28" fill="none" xmlns="http://www.w3.org/2000/svg">
<rect width="28" height="28" rx="14" fill="#1A1D21"/>
<path d="M12.3643 8.43031L12.9052 9.39941C13.3933 10.274 13.1973 11.4213 12.4286 12.19C12.4286 12.19 11.4962 13.1225 13.1868 14.8131C14.8774 16.5037 15.8098 15.5712 15.8098 15.5712C16.5786 14.8025 17.7259 14.6066 18.6004 15.0947L19.5695 15.6355C20.8901 16.3725 21.0461 18.2245 19.8853 19.3853C19.1878 20.0828 18.3333 20.6256 17.3888 20.6614C15.7987 20.7216 13.0982 20.3192 10.3894 17.6104C7.68061 14.9016 7.27819 12.2012 7.33847 10.6111C7.37428 9.6665 7.91701 8.81203 8.61451 8.11452C9.7753 6.95373 11.6273 7.10969 12.3643 8.43031Z" fill="white"/>
</svg>
