<svg width="28" height="28" viewBox="0 0 28 28" fill="none" xmlns="http://www.w3.org/2000/svg">
<g clip-path="url(#clip0_1117_3318)">
<path d="M21.875 17.5C20.6636 17.5 19.4794 17.1408 18.4721 16.4678C17.4649 15.7947 16.6798 14.8381 16.2162 13.7189C15.7527 12.5997 15.6314 11.3682 15.8677 10.1801C16.104 8.99194 16.6874 7.90057 17.544 7.04397C18.4006 6.18738 19.4919 5.60403 20.6801 5.36769C21.8682 5.13136 23.0997 5.25265 24.2189 5.71624C25.3381 6.17983 26.2947 6.96488 26.9678 7.97214C27.6408 8.97939 28 10.1636 28 11.375L28.028 12.25C28.028 13.8587 27.7111 15.4516 27.0955 16.9379C26.4799 18.4241 25.5776 19.7745 24.4401 20.9121C23.3025 22.0496 21.9521 22.9519 20.4659 23.5675C18.9796 24.1831 17.3867 24.5 15.778 24.5V21C16.9276 21.0031 18.0664 20.7783 19.1285 20.3385C20.1906 19.8988 21.1551 19.2528 21.966 18.438C22.2812 18.1235 22.572 17.7853 22.8358 17.4265C22.5179 17.4761 22.1967 17.5012 21.875 17.5018V17.5ZM6.125 17.5C4.91359 17.5 3.72939 17.1408 2.72214 16.4678C1.71488 15.7947 0.929827 14.8381 0.466241 13.7189C0.00265391 12.5997 -0.118642 11.3682 0.117693 10.1801C0.354027 8.99194 0.937377 7.90057 1.79397 7.04397C2.65057 6.18738 3.74194 5.60403 4.93007 5.36769C6.11821 5.13136 7.34974 5.25265 8.46894 5.71624C9.58814 6.17983 10.5447 6.96488 11.2178 7.97214C11.8908 8.97939 12.25 10.1636 12.25 11.375L12.278 12.25C12.278 15.4989 10.9874 18.6147 8.69006 20.9121C6.39274 23.2094 3.2769 24.5 0.0280027 24.5V21C1.17757 21.0031 2.31635 20.7783 3.37849 20.3385C4.44063 19.8988 5.40506 19.2528 6.216 18.438C6.53124 18.1235 6.822 17.7853 7.08575 17.4265C6.76789 17.4761 6.4467 17.5012 6.125 17.5018V17.5Z" fill="#1A1D21"/>
</g>
<defs>
<clipPath id="clip0_1117_3318">
<rect width="28" height="28" fill="white"/>
</clipPath>
</defs>
</svg>
