<svg width="1147" height="210" viewBox="0 0 1147 210" fill="none" xmlns="http://www.w3.org/2000/svg">
<path d="M1009.56 98.9423V2.30774H1147V28.8462H1038.51V80.1923C1026.01 83.9423 1016.26 90.2885 1009.56 98.9423ZM1038.51 132.981V181.154H1147V207.404H1009.56V135.577C1009.56 119.712 1014.43 107.596 1024.49 99.2308C1034.24 91.1539 1047.96 87.1154 1066.24 87.1154H1141.51V113.077H1064.11C1054.36 113.077 1047.96 114.519 1044.3 117.404C1040.34 120.577 1038.51 125.769 1038.51 132.981Z" fill="white"/>
<path d="M818.295 207.404V150C818.295 137.885 822.257 127.788 830.79 119.712C838.713 112.212 852.122 108.173 871.626 108.173C894.483 108.173 910.025 106.154 918.253 102.115C924.958 99.2308 929.834 94.6154 933.186 88.8462C936.843 82.5 938.671 75 938.671 66.6347C938.671 52.7885 935.014 42.9808 928.31 37.2116C921.605 31.7308 909.415 28.8462 892.045 28.8462H847.246V101.25C834.142 104.423 824.39 109.615 818.295 116.538V2.30774H892.654C918.253 2.30774 937.148 7.78851 949.642 18.75C962.137 29.7116 968.537 45.8654 968.537 66.6347C968.537 81.6347 965.489 93.75 959.394 103.558C953.299 112.788 942.328 120.288 926.177 125.769L977.679 207.404H942.938L895.702 132.404H875.893C863.398 132.404 855.475 135 852.122 139.904C848.77 144.519 847.246 149.135 847.246 153.462V207.404H818.295Z" fill="white"/>
<path d="M593.587 131.538V0.288452H622.539V129.808C622.539 147.981 627.415 160.673 637.167 168.173C646.919 175.962 661.851 179.712 681.356 179.712C701.164 179.712 716.097 175.962 726.154 168.462C735.906 160.962 741.087 147.981 741.087 129.808V0.288452H770.038V131.538C770.038 157.212 762.114 176.25 746.877 188.654C731.335 201.346 709.697 207.404 681.66 207.404C653.928 207.404 632.291 201.346 616.748 188.654C601.206 176.538 593.587 157.5 593.587 131.538Z" fill="white"/>
<path d="M409.283 181.154H477.851C509.241 181.154 524.783 170.192 524.478 148.269C524.478 139.327 521.736 132.404 516.555 127.5C511.069 122.885 501.622 119.423 488.823 117.404C466.271 114.231 450.729 111.346 442.805 108.75C417.206 100.962 404.711 83.6539 404.711 56.827C404.711 41.25 410.502 28.2693 422.692 17.8847C434.882 7.50004 453.167 2.30774 477.851 2.30774H539.411V28.8462H475.413C447.986 28.8462 434.577 38.6539 434.577 57.6923C434.577 65.4808 437.015 71.827 442.196 76.7308C447.681 82.2116 456.519 85.6731 468.709 87.1154C468.709 87.1154 480.594 88.8462 503.755 91.7308C522.04 95.1923 536.059 103.558 545.201 116.25C551.296 124.904 554.344 135.577 554.344 148.269C554.344 165.288 548.249 179.423 536.668 190.673C525.088 201.923 505.279 207.404 477.851 207.404H409.283V181.154Z" fill="white"/>
<path d="M171.414 104.712C171.414 34.9038 204.937 0 272.591 0C272.591 10.9615 270.153 18.4615 265.582 22.7885C263.144 25.0962 260.706 26.8269 258.573 27.6923C257.049 28.2692 254.002 29.1346 249.126 30.2885C247.297 30.8654 244.554 31.4423 240.897 32.5962C233.583 34.9038 226.879 38.6538 220.784 44.1346C215.298 49.3269 211.032 55.0962 208.594 62.0192C205.851 68.9423 204.023 75.5769 203.108 82.5C201.889 89.4231 201.585 96.9231 201.585 104.712C201.585 131.538 207.07 151.154 218.041 163.558C229.317 176.538 247.297 182.885 271.982 182.885C296.971 182.885 314.952 176.538 325.923 163.558C336.894 150.865 342.379 131.25 342.379 104.712C342.379 79.3269 336.894 60.2885 326.227 47.0192C315.866 34.6154 298.8 28.2692 275.334 28.2692C280.82 21.9231 283.562 12.6923 283.562 0C342.684 0 372.55 34.9038 372.55 104.712C372.55 138.462 364.017 164.423 347.56 182.596C331.103 201.058 305.809 210 271.982 210C238.459 210 213.165 201.058 196.404 182.596C179.643 164.423 171.414 138.462 171.414 104.712Z" fill="white"/>
<path d="M0 101.539V2.30798H137.442V28.8464H28.9513V83.0772C16.1518 86.8272 6.70451 92.8849 0 101.539ZM28.9513 136.443V207.404H0V138.462C0 106.443 18.8945 90.2887 56.6836 90.2887H131.347V116.25H54.5503C45.4078 116.25 38.7033 117.693 34.7415 120.577C30.7798 123.462 28.9513 128.943 28.9513 136.443Z" fill="white"/>
</svg>
