<svg width="164" height="30" viewBox="0 0 164 30" fill="none" xmlns="http://www.w3.org/2000/svg">
<path d="M144.348 14.1346V0.329674H164V4.12088H148.488V11.456C146.701 11.9918 145.307 12.8984 144.348 14.1346ZM148.488 18.9973V25.8791H164V29.6291H144.348V19.3681C144.348 17.1017 145.046 15.3709 146.484 14.1758C147.878 13.022 149.839 12.4451 152.453 12.4451H163.216V16.1538H152.148C150.754 16.1538 149.839 16.3599 149.316 16.772C148.749 17.2253 148.488 17.967 148.488 18.9973Z" fill="#1A1D21"/>
<path d="M117.001 29.6291V21.4286C117.001 19.6978 117.568 18.2555 118.788 17.1017C119.921 16.0302 121.838 15.4533 124.627 15.4533C127.895 15.4533 130.117 15.1648 131.293 14.5879C132.252 14.1758 132.949 13.5165 133.429 12.6923C133.951 11.7857 134.213 10.7143 134.213 9.51923C134.213 7.54121 133.69 6.14011 132.731 5.31594C131.773 4.53297 130.03 4.12088 127.546 4.12088H121.141V14.4643C119.267 14.9176 117.873 15.6593 117.001 16.6484V0.329674H127.633C131.293 0.329674 133.995 1.11264 135.781 2.67857C137.568 4.24451 138.483 6.5522 138.483 9.51923C138.483 11.6621 138.047 13.3929 137.176 14.794C136.304 16.1126 134.736 17.1841 132.426 17.967L139.79 29.6291H134.823L128.069 18.9148H125.237C123.45 18.9148 122.317 19.2857 121.838 19.9863C121.359 20.6456 121.141 21.3049 121.141 21.9231V29.6291H117.001Z" fill="#1A1D21"/>
<path d="M84.8721 18.7912V0.041214H89.0116V18.544C89.0116 21.1401 89.7088 22.9533 91.1031 24.0247C92.4975 25.1374 94.6326 25.6731 97.4213 25.6731C100.254 25.6731 102.389 25.1374 103.827 24.0659C105.221 22.9945 105.962 21.1401 105.962 18.544V0.041214H110.101V18.7912C110.101 22.4588 108.968 25.1786 106.79 26.9506C104.567 28.7637 101.474 29.6291 97.4649 29.6291C93.4997 29.6291 90.4059 28.7637 88.1837 26.9506C85.9614 25.2198 84.8721 22.5 84.8721 18.7912Z" fill="#1A1D21"/>
<path d="M58.5198 25.8791H68.3239C72.812 25.8791 75.0343 24.3132 74.9907 21.1813C74.9907 19.9038 74.5985 18.9148 73.8578 18.2143C73.0734 17.5549 71.7227 17.0604 69.8926 16.772C66.6681 16.3187 64.4458 15.9066 63.3129 15.5357C59.6527 14.4231 57.8662 11.9506 57.8662 8.11813C57.8662 5.89286 58.6941 4.03846 60.4371 2.55495C62.18 1.07143 64.7944 0.329674 68.3239 0.329674H77.1258V4.12088H67.9753C64.0537 4.12088 62.1364 5.52198 62.1364 8.24176C62.1364 9.3544 62.485 10.261 63.2258 10.9615C64.0101 11.7445 65.2737 12.239 67.0167 12.4451C67.0167 12.4451 68.7161 12.6923 72.0277 13.1044C74.6421 13.5989 76.6465 14.794 77.9537 16.6071C78.8252 17.8434 79.2609 19.3681 79.2609 21.1813C79.2609 23.6126 78.3894 25.6319 76.7336 27.239C75.0778 28.8462 72.2455 29.6291 68.3239 29.6291H58.5198V25.8791Z" fill="#1A1D21"/>
<path d="M24.5093 14.9588C24.5093 4.98626 29.3024 0 38.9757 0C38.9757 1.56593 38.6272 2.63736 37.9736 3.25549C37.625 3.58516 37.2764 3.83242 36.9714 3.95604C36.7535 4.03846 36.3178 4.16209 35.6206 4.32692C35.3591 4.40934 34.967 4.49176 34.4441 4.65659C33.3983 4.98626 32.4397 5.52198 31.5682 6.30494C30.7839 7.0467 30.1739 7.87088 29.8253 8.85989C29.4331 9.8489 29.1717 10.7967 29.0409 11.7857C28.8666 12.7747 28.8231 13.8462 28.8231 14.9588C28.8231 18.7912 29.6074 21.5934 31.1761 23.3654C32.7883 25.2198 35.3591 26.1264 38.8886 26.1264C42.4616 26.1264 45.0325 25.2198 46.6012 23.3654C48.1698 21.5522 48.9541 18.75 48.9541 14.9588C48.9541 11.3324 48.1698 8.61264 46.6447 6.71703C45.1632 4.94506 42.7231 4.03846 39.3679 4.03846C40.1522 3.13187 40.5444 1.81319 40.5444 0C48.9977 0 53.2679 4.98626 53.2679 14.9588C53.2679 19.7802 52.0479 23.489 49.6949 26.0852C47.3419 28.7225 43.7253 30 38.8886 30C34.0955 30 30.4789 28.7225 28.0823 26.0852C25.6858 23.489 24.5093 19.7802 24.5093 14.9588Z" fill="#1A1D21"/>
<path d="M0 14.5055V0.329674H19.6517V4.12088H4.1395V11.8681C2.30941 12.4038 0.958622 13.2692 0 14.5055ZM4.1395 19.4918V29.6291H0V19.7802C0 15.206 2.70157 12.8984 8.10471 12.8984H18.7803V16.6071H7.7997C6.49248 16.6071 5.53386 16.8132 4.9674 17.2253C4.40095 17.6374 4.1395 18.4203 4.1395 19.4918Z" fill="#1A1D21"/>
</svg>
