<svg width="136" height="24" viewBox="0 0 136 24" fill="none" xmlns="http://www.w3.org/2000/svg">
<path d="M119.703 11.3076V0.263672H136V3.29664H123.136V9.16477C121.654 9.59334 120.498 10.3186 119.703 11.3076ZM123.136 15.1977V20.7032H136V23.7032H119.703V15.4944C119.703 13.6813 120.281 12.2966 121.474 11.3406C122.63 10.4175 124.256 9.95598 126.424 9.95598H135.349V12.923H126.171C125.015 12.923 124.256 13.0878 123.822 13.4175C123.353 13.7802 123.136 14.3736 123.136 15.1977Z" fill="#1A1D21"/>
<path d="M97.0254 23.7032V17.1428C97.0254 15.7582 97.4951 14.6043 98.5069 13.6813C99.4464 12.8241 101.036 12.3626 103.349 12.3626C106.059 12.3626 107.902 12.1318 108.877 11.6703C109.672 11.3406 110.251 10.8131 110.648 10.1538C111.082 9.4285 111.298 8.57136 111.298 7.61532C111.298 6.0329 110.865 4.91202 110.07 4.25268C109.275 3.62631 107.83 3.29664 105.77 3.29664H100.458V11.5714C98.9044 11.934 97.7481 12.5274 97.0254 13.3186V0.263672H105.842C108.877 0.263672 111.118 0.890045 112.599 2.14279C114.081 3.39554 114.84 5.24169 114.84 7.61532C114.84 9.32961 114.478 10.7142 113.756 11.8351C113.033 12.89 111.732 13.7472 109.817 14.3736L115.924 23.7032H111.804L106.204 15.1318H103.855C102.373 15.1318 101.434 15.4285 101.036 15.9889C100.639 16.5164 100.458 17.0439 100.458 17.5384V23.7032H97.0254Z" fill="#1A1D21"/>
<path d="M70.3818 15.0332V0.0332031H73.8146V14.8354C73.8146 16.9123 74.3927 18.3629 75.549 19.22C76.7053 20.1101 78.4759 20.5387 80.7885 20.5387C83.1372 20.5387 84.9078 20.1101 86.1003 19.253C87.2566 18.3958 87.8708 16.9123 87.8708 14.8354V0.0332031H91.3036V15.0332C91.3036 17.9673 90.3641 20.1431 88.5574 21.5607C86.7145 23.0112 84.149 23.7035 80.8246 23.7035C77.5364 23.7035 74.9709 23.0112 73.128 21.5607C71.2852 20.1761 70.3818 18.0002 70.3818 15.0332Z" fill="#1A1D21"/>
<path d="M48.5283 20.7032H56.6586C60.3804 20.7032 62.2232 19.4505 62.1871 16.945C62.1871 15.923 61.8619 15.1318 61.2476 14.5714C60.5972 14.0439 59.477 13.6483 57.9594 13.4175C55.2855 13.0549 53.4426 12.7252 52.5031 12.4285C49.4678 11.5384 47.9863 9.56037 47.9863 6.49444C47.9863 4.71422 48.6729 3.2307 50.1183 2.04389C51.5636 0.857078 53.7317 0.263672 56.6586 0.263672H63.9577V3.29664H56.3695C53.1174 3.29664 51.5275 4.41752 51.5275 6.59334C51.5275 7.48345 51.8166 8.20872 52.4308 8.76917C53.0813 9.39554 54.1292 9.79114 55.5745 9.95598C55.5745 9.95598 56.9838 10.1538 59.73 10.4835C61.898 10.8791 63.5602 11.8351 64.6442 13.2856C65.3669 14.2747 65.7283 15.4944 65.7283 16.945C65.7283 18.89 65.0056 20.5054 63.6325 21.7911C62.2594 23.0769 59.9106 23.7032 56.6586 23.7032H48.5283V20.7032Z" fill="#1A1D21"/>
<path d="M20.3242 11.967C20.3242 3.98901 24.299 0 32.3208 0C32.3208 1.25275 32.0317 2.10989 31.4897 2.60439C31.2006 2.86813 30.9116 3.06593 30.6586 3.16484C30.478 3.23077 30.1166 3.32967 29.5385 3.46154C29.3217 3.52747 28.9965 3.59341 28.5628 3.72528C27.6956 3.98901 26.9007 4.41758 26.178 5.04396C25.5276 5.63736 25.0217 6.29671 24.7326 7.08791C24.4074 7.87912 24.1906 8.63736 24.0822 9.42857C23.9376 10.2198 23.9015 11.0769 23.9015 11.967C23.9015 15.033 24.5519 17.2747 25.8528 18.6923C27.1897 20.1758 29.3217 20.9011 32.2485 20.9011C35.2116 20.9011 37.3435 20.1758 38.6443 18.6923C39.9451 17.2418 40.5956 15 40.5956 11.967C40.5956 9.06593 39.9451 6.89011 38.6804 5.37363C37.4519 3.95604 35.4284 3.23077 32.646 3.23077C33.2964 2.5055 33.6216 1.45055 33.6216 0C40.6317 0 44.1729 3.98901 44.1729 11.967C44.1729 15.8242 43.1611 18.7912 41.2098 20.8681C39.2586 22.978 36.2594 24 32.2485 24C28.2738 24 25.2746 22.978 23.2872 20.8681C21.2998 18.7912 20.3242 15.8242 20.3242 11.967Z" fill="#1A1D21"/>
<path d="M0 11.6043V0.263672H16.2966V3.29664H3.43276V9.49444C1.91512 9.92301 0.794955 10.6153 0 11.6043ZM3.43276 15.5933V23.7032H0V15.8241C0 12.1648 2.24033 10.3186 6.72098 10.3186H15.5739V13.2856H6.46804C5.38401 13.2856 4.58906 13.4505 4.11931 13.7802C3.64956 14.1098 3.43276 14.7362 3.43276 15.5933Z" fill="#1A1D21"/>
</svg>
