<svg width="0" height="0" style="position:absolute"><symbol viewBox="0 0 24 24" id="angle-down" xmlns="http://www.w3.org/2000/svg">
    <path d="M19 9L12 15L5 9" stroke-width="1.5" stroke-linecap="round" stroke-linejoin="round"/>
</symbol><symbol viewBox="0 0 32 32" id="angle-left" xmlns="http://www.w3.org/2000/svg">
    <path d="M20 6.66669L12 16L20 25.3334" stroke-width="1.5" stroke-linecap="round" stroke-linejoin="round"/>
</symbol><symbol viewBox="0 0 32 32" id="angle-right" xmlns="http://www.w3.org/2000/svg">
    <path d="M12 6.66669L20 16L12 25.3334" stroke-width="1.5" stroke-linecap="round" stroke-linejoin="round"/>
</symbol><symbol viewBox="0 0 24 24" id="arrow-left" xmlns="http://www.w3.org/2000/svg">
    <path d="M20 12H4M4 12L10 6M4 12L10 18" stroke-width="1.5" stroke-linecap="round" stroke-linejoin="round"/>
</symbol><symbol viewBox="0 0 24 24" id="arrow-right" xmlns="http://www.w3.org/2000/svg">
    <path d="M4 12H20M20 12L14 6M20 12L14 18" stroke-width="1.5" stroke-linecap="round" stroke-linejoin="round"/>
</symbol><symbol viewBox="0 0 24 24" id="broom" xmlns="http://www.w3.org/2000/svg">
    <path d="M18.2211 19.6431C18.6981 18.7396 19.1627 17.7065 19.4613 16.6623C19.8722 15.2247 20.0207 13.8751 20.0629 12.8451L18.5105 11.2926L12.7073 5.48944L11.1549 3.93701C10.1248 3.97917 8.77531 4.12767 7.33767 4.53865C6.29348 4.83716 5.26037 5.30183 4.35693 5.77885C2.10098 6.96998 1.42721 9.71071 2.49716 11.8068L2.51021 11.8324L3.20923 12.9815C5.15002 16.1718 7.82804 18.8499 11.0184 20.7907L12.1675 21.4898L12.1931 21.5028C14.2892 22.5728 17.0299 21.899 18.2211 19.6431Z"/>
    <path d="M21.7747 3.31343C22.0751 3.01296 22.0751 2.52581 21.7747 2.22535C21.4742 1.92488 20.987 1.92488 20.6866 2.22535L19.0118 3.90018C17.3118 2.66569 14.9941 2.66575 13.2942 3.9002L14.4027 5.00866L18.9915 9.59749L20.0999 10.7059C21.3344 9.00597 21.3343 6.68821 20.0998 4.98826L21.7747 3.31343Z"/>
</symbol><symbol viewBox="0 0 24 24" id="car" xmlns="http://www.w3.org/2000/svg">
    <path d="M2.2361 21H3.33301C4.02066 21 4.55959 20.4469 4.55959 19.729V18.099C6.62333 18.2347 9.60671 18.3316 11.9952 18.3316C14.3933 18.3316 17.3767 18.2347 19.4404 18.099V19.729C19.4404 20.4469 19.9702 21 20.667 21H21.7639C22.4611 21 23 20.4469 23 19.729V14.1301C23 12.4997 22.6839 11.5777 21.8198 10.4135L21.039 9.35565C20.6951 7.6093 20.0817 5.77519 19.7565 5.05727C19.2635 3.96053 18.2971 3.3101 17.061 3.1358C16.4384 3.05796 14.4028 3 11.9952 3C9.59759 3 7.56161 3.0679 6.939 3.1358C5.7029 3.29106 4.73646 3.96053 4.24393 5.05686C3.91874 5.77519 3.30485 7.6093 2.96103 9.35565L2.18019 10.4135C1.31567 11.5781 1 12.4997 1 14.1301V19.729C1 20.4469 1.53933 21 2.2361 21ZM4.83878 8.55037C5.06165 7.48303 5.50779 6.09523 5.81433 5.53216C6.06536 5.07673 6.33503 4.88214 6.83708 4.81466C7.54297 4.70784 9.1233 4.64946 11.9952 4.64946C14.8767 4.64946 16.4566 4.68838 17.1633 4.81466C17.6559 4.89208 17.9251 5.07632 18.1857 5.53257C18.5017 6.0857 18.9197 7.48261 19.1612 8.55037C19.2453 8.90933 19.1057 9.04513 18.7432 9.01615C17.2006 8.91927 15.3601 8.81245 11.9952 8.81245C8.64028 8.81245 6.79981 8.91927 5.25676 9.01615C4.8943 9.04513 4.76422 8.90933 4.83838 8.55037M5.21909 15.8185C4.33633 15.8185 3.67644 15.1197 3.67644 14.2076C3.67644 13.2855 4.33633 12.597 5.21909 12.597C6.10185 12.597 6.76213 13.2855 6.76213 14.2076C6.76213 15.1197 6.10224 15.8181 5.21948 15.8181M18.7805 15.8181C17.8974 15.8181 17.2379 15.1192 17.2379 14.2071C17.2379 13.2851 17.8974 12.5966 18.7805 12.5966C19.6542 12.5966 20.3232 13.2851 20.3232 14.2071C20.3232 15.1192 19.6542 15.8181 18.7805 15.8181ZM9.53256 15.3714C8.88179 15.3714 8.42613 14.8861 8.42613 14.2067C8.42613 13.5178 8.88179 13.0425 9.53256 13.0425H14.4678C15.1182 13.0425 15.5739 13.5178 15.5739 14.2067C15.5739 14.8857 15.1182 15.3714 14.4674 15.3714H9.53256Z"/>
</symbol><symbol viewBox="0 0 24 24" id="check" xmlns="http://www.w3.org/2000/svg">
    <path d="M4.5 13.2L8.78571 18L19.5 6" stroke-width="1.5" stroke-linecap="round" stroke-linejoin="round"/>
</symbol><symbol viewBox="0 0 24 24" id="clock-stroke" xmlns="http://www.w3.org/2000/svg">
    <path fill-rule="evenodd" clip-rule="evenodd" d="M12 2.75C6.89137 2.75 2.75 6.89137 2.75 12C2.75 17.1086 6.89137 21.25 12 21.25C17.1086 21.25 21.25 17.1086 21.25 12C21.25 6.89137 17.1086 2.75 12 2.75ZM1.25 12C1.25 6.06294 6.06294 1.25 12 1.25C17.9371 1.25 22.75 6.06294 22.75 12C22.75 17.9371 17.9371 22.75 12 22.75C6.06294 22.75 1.25 17.9371 1.25 12ZM12 7.25C12.4142 7.25 12.75 7.58579 12.75 8V11.6893L15.0303 13.9697C15.3232 14.2626 15.3232 14.7374 15.0303 15.0303C14.7374 15.3232 14.2626 15.3232 13.9697 15.0303L11.4697 12.5303C11.329 12.3897 11.25 12.1989 11.25 12V8C11.25 7.58579 11.5858 7.25 12 7.25Z"/>
</symbol><symbol viewBox="0 0 24 24" id="close" xmlns="http://www.w3.org/2000/svg">
    <path d="M18.75 5.25L5.25 18.75M18.75 18.75L5.25 5.25" stroke-width="1.5" stroke-linecap="round" stroke-linejoin="round"/>
</symbol><symbol viewBox="0 0 24 24" id="dialog" xmlns="http://www.w3.org/2000/svg">
    <path fill-rule="evenodd" clip-rule="evenodd" d="M10.5487 21.5277L10.7988 21.1053C11.1996 20.4282 11.3999 20.0897 11.7191 19.9009C12.0383 19.712 12.4547 19.6987 13.2874 19.6721C14.0682 19.6471 14.593 19.579 15.0417 19.3931C15.9864 19.0018 16.7369 18.2513 17.1282 17.3066C17.4217 16.5981 17.4217 15.6999 17.4217 13.9035V13.1324C17.4217 10.6083 17.4217 9.34622 16.8536 8.4191C16.5357 7.90033 16.0995 7.46416 15.5807 7.14626C14.6536 6.57813 13.3916 6.57812 10.8675 6.57812H8.55422C6.03013 6.57812 4.76808 6.57813 3.84097 7.14626C3.3222 7.46416 2.88604 7.90033 2.56813 8.4191C2 9.34622 2 10.6083 2 13.1324V13.9035C2 15.6999 2 16.5981 2.29348 17.3066C2.68478 18.2513 3.43533 19.0018 4.38002 19.3931C4.82871 19.579 5.35348 19.6471 6.13427 19.6721C6.96698 19.6987 7.38334 19.712 7.70253 19.9009C8.02172 20.0897 8.2221 20.4282 8.62285 21.1053L8.87291 21.5277C9.24547 22.1572 10.1762 22.1572 10.5487 21.5277ZM13.0843 14.289C13.6167 14.289 14.0482 13.8574 14.0482 13.3251C14.0482 12.7928 13.6167 12.3613 13.0843 12.3613C12.552 12.3613 12.1205 12.7928 12.1205 13.3251C12.1205 13.8574 12.552 14.289 13.0843 14.289ZM10.6747 13.3251C10.6747 13.8574 10.2432 14.289 9.71084 14.289C9.17852 14.289 8.74699 13.8574 8.74699 13.3251C8.74699 12.7928 9.17852 12.3613 9.71084 12.3613C10.2432 12.3613 10.6747 12.7928 10.6747 13.3251ZM6.33735 14.289C6.86967 14.289 7.30121 13.8574 7.30121 13.3251C7.30121 12.7928 6.86967 12.3613 6.33735 12.3613C5.80503 12.3613 5.37349 12.7928 5.37349 13.3251C5.37349 13.8574 5.80503 14.289 6.33735 14.289Z"/>
    <path d="M15.1696 2C16.3214 1.99999 17.2372 1.99999 17.9717 2.06982C18.7249 2.14143 19.3617 2.29154 19.9289 2.63915C20.5125 2.9968 21.0032 3.48748 21.3608 4.0711C21.7085 4.63836 21.8586 5.27514 21.9302 6.02829C22 6.76279 22 7.67871 22 8.83039V9.61699C22 10.4367 22 11.0886 21.9639 11.6173C21.927 12.1581 21.85 12.6226 21.6698 13.0575C21.2296 14.1202 20.3853 14.9646 19.3225 15.4048C19.2959 15.4158 19.2692 15.4265 19.2423 15.4367C19.114 15.4858 19.0042 15.5278 18.9077 15.5591C18.9217 15.0903 18.9217 14.5563 18.9217 13.9537V13.0614C18.9217 11.8598 18.9217 10.8532 18.8439 10.0349C18.7625 9.17817 18.5853 8.37421 18.1325 7.63536C17.6909 6.91475 17.0851 6.30889 16.3645 5.8673C15.6256 5.41453 14.8217 5.23733 13.9649 5.15588C13.1466 5.07807 12.14 5.07809 10.9384 5.07812H8.48326C7.66717 5.0781 6.94105 5.07809 6.30276 5.10245C6.3325 4.9994 6.37324 4.88128 6.42106 4.74264C6.5024 4.50682 6.60519 4.28381 6.73554 4.0711C7.09318 3.48748 7.58386 2.9968 8.16748 2.63915C8.73473 2.29154 9.37152 2.14143 10.1247 2.06982C10.8592 1.99999 11.775 1.99999 12.9268 2H15.1696Z"/>
</symbol><symbol viewBox="0 0 22 22" id="eye" xmlns="http://www.w3.org/2000/svg">
    <path d="M3.00166 14.0209C2.22256 13.0087 1.83301 12.5026 1.83301 10.9998C1.83301 9.49708 2.22256 8.99099 3.00166 7.97881C4.55731 5.95777 7.16628 3.6665 10.9997 3.6665C14.8331 3.6665 17.442 5.95777 18.9977 7.97881C19.7768 8.99099 20.1663 9.49708 20.1663 10.9998C20.1663 12.5026 19.7768 13.0087 18.9977 14.0209C17.442 16.0419 14.8331 18.3332 10.9997 18.3332C7.16628 18.3332 4.55731 16.0419 3.00166 14.0209Z" stroke-width="1.5"/>
    <path d="M13.75 11C13.75 12.5188 12.5188 13.75 11 13.75C9.48122 13.75 8.25 12.5188 8.25 11C8.25 9.48122 9.48122 8.25 11 8.25C12.5188 8.25 13.75 9.48122 13.75 11Z" stroke-width="1.5"/>
</symbol><symbol viewBox="0 0 80 80" id="failed" xmlns="http://www.w3.org/2000/svg">
    <path d="M74 60.7205C74 62.2469 73.4658 63.5443 72.3973 64.6128L64.6128 72.3973C63.5443 73.4658 62.2469 74 60.7205 74C59.1942 74 57.8967 73.4658 56.8283 72.3973L40 55.569L23.1717 72.3973C22.1033 73.4658 20.8058 74 19.2795 74C17.7531 74 16.4557 73.4658 15.3872 72.3973L7.60269 64.6128C6.53423 63.5443 6 62.2469 6 60.7205C6 59.1942 6.53423 57.8967 7.60269 56.8283L24.431 40L7.60269 23.1717C6.53423 22.1033 6 20.8058 6 19.2795C6 17.7531 6.53423 16.4557 7.60269 15.3872L15.3872 7.60269C16.4557 6.53423 17.7531 6 19.2795 6C20.8058 6 22.1033 6.53423 23.1717 7.60269L40 24.431L56.8283 7.60269C57.8967 6.53423 59.1942 6 60.7205 6C62.2469 6 63.5443 6.53423 64.6128 7.60269L72.3973 15.3872C73.4658 16.4557 74 17.7531 74 19.2795C74 20.8058 73.4658 22.1033 72.3973 23.1717L55.569 40L72.3973 56.8283C73.4658 57.8967 74 59.1942 74 60.7205Z"/>
</symbol><symbol viewBox="0 0 24 24" id="hands" xmlns="http://www.w3.org/2000/svg">
    <path d="M11.8248 22C11.5492 22 11.3071 21.9035 11.0983 21.7104C10.8895 21.519 10.7852 21.2665 10.7852 20.953C10.7852 20.8032 10.8171 20.6372 10.8809 20.4549C10.9447 20.2727 11.0401 20.1164 11.167 19.9859L15.0081 16.0364C15.1057 15.936 15.1545 15.8298 15.1545 15.7179C15.1545 15.6059 15.1057 15.4993 15.0081 15.3982C14.9105 15.297 14.8031 15.2511 14.6859 15.2604C14.5688 15.2696 14.4685 15.3175 14.3852 15.404L10.552 19.3465C10.4243 19.4778 10.2805 19.5759 10.1206 19.6407C9.96063 19.7064 9.79805 19.7392 9.63284 19.7392C9.34298 19.7392 9.09704 19.6353 8.89504 19.4276C8.69303 19.2199 8.59241 18.9674 8.59316 18.6701C8.59316 18.4918 8.62845 18.3177 8.69904 18.1478C8.77038 17.9779 8.86012 17.837 8.96826 17.725L12.8093 13.7755C12.907 13.6752 12.9558 13.5701 12.9558 13.4605C12.9558 13.3509 12.907 13.2455 12.8093 13.1443C12.7117 13.0432 12.6054 12.9961 12.4906 13.003C12.3757 13.01 12.2765 13.0571 12.1932 13.1443L8.35211 17.0857C8.23946 17.2015 8.09979 17.2957 7.93308 17.3683C7.76637 17.4409 7.59816 17.4776 7.42845 17.4783C7.14234 17.4783 6.89753 17.3733 6.69403 17.1633C6.49052 16.9548 6.38877 16.7031 6.38877 16.4082C6.38877 16.2398 6.42031 16.073 6.48339 15.9078C6.54646 15.7426 6.64183 15.5947 6.76949 15.4642L10.3436 11.7892C10.4412 11.6888 10.49 11.5823 10.49 11.4695C10.49 11.3568 10.4412 11.2503 10.3436 11.1499C10.246 11.0495 10.1397 11.0028 10.0248 11.0097C9.90994 11.0167 9.81119 11.0634 9.72859 11.1499L6.15447 14.8318C6.04634 14.943 5.90854 15.0353 5.74108 15.1086C5.57287 15.1812 5.4024 15.2175 5.22969 15.2175C4.9248 15.2175 4.67511 15.1175 4.48062 14.9175C4.28688 14.7183 4.19001 14.462 4.19001 14.1485C4.19001 13.9786 4.22155 13.8114 4.28462 13.647C4.34845 13.4825 4.44382 13.3346 4.57073 13.2034L9.46163 8.17443C9.65387 7.97676 9.87953 7.88024 10.1386 7.88487C10.3977 7.88951 10.6233 7.99066 10.8156 8.18832L12.5615 9.98355C12.768 10.1959 13.0012 10.3461 13.261 10.4341C13.5208 10.5229 13.7844 10.5673 14.0518 10.5673C14.5947 10.5673 15.0483 10.3835 15.4125 10.016C15.7767 9.64767 15.9588 9.17782 15.9588 8.60644C15.9588 8.33619 15.9081 8.06362 15.8067 7.78874C15.7053 7.51386 15.5473 7.266 15.3325 7.04517L13.7927 5.46189C13.4127 5.07119 13.1972 4.62026 13.1461 4.1091C13.0943 3.59872 13.2426 3.16825 13.5911 2.8177C13.8314 2.54282 14.1122 2.3382 14.4336 2.20385C14.7543 2.06795 15.0884 2 15.4361 2C15.7876 2 16.1334 2.07065 16.4736 2.21195C16.8145 2.35248 17.125 2.56714 17.4051 2.85592L22.2307 7.82117C22.4672 8.0644 22.6546 8.36167 22.7927 8.71299C22.9309 9.06277 23 9.45078 23 9.877C23 10.2631 22.9298 10.6279 22.7894 10.9715C22.6497 11.3151 22.4635 11.6066 22.2307 11.846L12.7451 21.6062C12.6235 21.7313 12.4808 21.8278 12.3171 21.8958C12.1549 21.9645 11.9912 21.9988 11.826 21.9988M2.22216 12.3428C1.82191 11.9838 1.51778 11.5715 1.30976 11.1059C1.10325 10.6403 1 10.1654 1 9.68126C1 9.26739 1.07472 8.86665 1.22416 8.47904C1.37359 8.09142 1.60263 7.73855 1.91127 7.42043L6.34596 2.85476C6.59302 2.59995 6.86562 2.40074 7.16374 2.25712C7.46186 2.1135 7.78364 2.0417 8.12908 2.0417C8.48202 2.0417 8.8252 2.1135 9.15862 2.25712C9.49204 2.40074 9.7819 2.59995 10.0282 2.85476L14.7186 7.6764C14.841 7.80303 14.9349 7.94587 15.0002 8.10493C15.0655 8.26399 15.0986 8.42846 15.0993 8.59833C15.0993 8.89715 14.9987 9.15389 14.7975 9.36854C14.5962 9.5832 14.3503 9.69053 14.0596 9.69053C13.8809 9.69053 13.7138 9.65655 13.5584 9.5886C13.4029 9.52065 13.264 9.42414 13.1416 9.29905L11.4103 7.52583C11.0649 7.17064 10.6395 6.99305 10.1341 6.99305C9.62871 6.99305 9.20292 7.17064 8.85674 7.52583L4.10327 12.4123C3.84495 12.6779 3.53706 12.7968 3.17961 12.7691C2.82291 12.742 2.50376 12.6 2.22216 12.3428Z"/>
</symbol><symbol viewBox="0 0 24 24" id="home-check" xmlns="http://www.w3.org/2000/svg">
    <path fill-rule="evenodd" clip-rule="evenodd" d="M4.54903 20.9882C5.72409 22 7.44737 22 10.8939 22H13.1061C16.5526 22 18.2759 22 19.451 20.9882C20.626 19.9764 20.8697 18.2827 21.3572 14.8952L21.6359 12.9579C22.0154 10.3208 22.2051 9.00229 21.6646 7.87495C21.1242 6.7476 19.9738 6.06234 17.6731 4.69181L16.2882 3.86687C14.199 2.62229 13.1543 2 12 2C10.8457 2 9.80104 2.62229 7.71175 3.86687L6.32691 4.69181C4.02619 6.06234 2.87583 6.7476 2.33537 7.87495C1.79491 9.00229 1.98463 10.3208 2.36407 12.9579L2.64284 14.8952C3.13025 18.2827 3.37396 19.9764 4.54903 20.9882ZM16.0303 12.0303C16.3232 11.7374 16.3232 11.2626 16.0303 10.9697C15.7374 10.6768 15.2626 10.6768 14.9697 10.9697L10.5 15.4393L9.03033 13.9697C8.73744 13.6768 8.26256 13.6768 7.96967 13.9697C7.67678 14.2626 7.67678 14.7374 7.96967 15.0303L9.96967 17.0303C10.2626 17.3232 10.7374 17.3232 11.0303 17.0303L16.0303 12.0303Z"/>
</symbol><symbol viewBox="0 0 24 24" id="info" xmlns="http://www.w3.org/2000/svg">
    <circle cx="12" cy="12" r="10" stroke-width="1.5"/>
    <path d="M12 17V11" stroke-width="1.5" stroke-linecap="round"/>
    <circle cx="1" cy="1" r="1" transform="matrix(1 0 0 -1 11 9)"/>
</symbol><symbol viewBox="0 0 24 24" id="mail-fill" xmlns="http://www.w3.org/2000/svg">
    <path fill-rule="evenodd" clip-rule="evenodd" d="M3.17157 5.17157C2 6.34315 2 8.22876 2 12C2 15.7712 2 17.6569 3.17157 18.8284C4.34315 20 6.22876 20 10 20H14C17.7712 20 19.6569 20 20.8284 18.8284C22 17.6569 22 15.7712 22 12C22 8.22876 22 6.34315 20.8284 5.17157C19.6569 4 17.7712 4 14 4H10C6.22876 4 4.34315 4 3.17157 5.17157ZM18.5762 7.51986C18.8413 7.83807 18.7983 8.31099 18.4801 8.57617L16.2837 10.4066C15.3973 11.1452 14.6789 11.7439 14.0448 12.1517C13.3843 12.5765 12.7411 12.8449 12 12.8449C11.2589 12.8449 10.6157 12.5765 9.95518 12.1517C9.32112 11.7439 8.60271 11.1452 7.71636 10.4066L5.51986 8.57617C5.20165 8.31099 5.15866 7.83807 5.42383 7.51986C5.68901 7.20165 6.16193 7.15866 6.48014 7.42383L8.63903 9.22291C9.57199 10.0004 10.2197 10.5384 10.7666 10.8901C11.2959 11.2306 11.6549 11.3449 12 11.3449C12.3451 11.3449 12.7041 11.2306 13.2334 10.8901C13.7803 10.5384 14.428 10.0004 15.361 9.22291L17.5199 7.42383C17.8381 7.15866 18.311 7.20165 18.5762 7.51986Z"/>
</symbol><symbol viewBox="0 0 24 24" id="map-point" xmlns="http://www.w3.org/2000/svg">
    <path fill-rule="evenodd" clip-rule="evenodd" d="M12 2C7.58172 2 4 6.00258 4 10.5C4 14.9622 6.55332 19.8124 10.5371 21.6744C11.4657 22.1085 12.5343 22.1085 13.4629 21.6744C17.4467 19.8124 20 14.9622 20 10.5C20 6.00258 16.4183 2 12 2ZM12 12C13.1046 12 14 11.1046 14 10C14 8.89543 13.1046 8 12 8C10.8954 8 10 8.89543 10 10C10 11.1046 10.8954 12 12 12Z"/>
</symbol><symbol viewBox="0 0 24 24" id="map-point-stroke" xmlns="http://www.w3.org/2000/svg">
    <path fill-rule="evenodd" clip-rule="evenodd" d="M3.25 10.1433C3.25 5.24427 7.15501 1.25 12 1.25C16.845 1.25 20.75 5.24427 20.75 10.1433C20.75 12.5084 20.076 15.0479 18.8844 17.2419C17.6944 19.4331 15.9556 21.3372 13.7805 22.3539C12.6506 22.882 11.3494 22.882 10.2195 22.3539C8.04437 21.3372 6.30562 19.4331 5.11556 17.2419C3.92403 15.0479 3.25 12.5084 3.25 10.1433ZM12 2.75C8.00843 2.75 4.75 6.04748 4.75 10.1433C4.75 12.2404 5.35263 14.5354 6.4337 16.526C7.51624 18.5192 9.04602 20.1496 10.8546 20.995C11.5821 21.335 12.4179 21.335 13.1454 20.995C14.954 20.1496 16.4838 18.5192 17.5663 16.526C18.6474 14.5354 19.25 12.2404 19.25 10.1433C19.25 6.04748 15.9916 2.75 12 2.75ZM12 7.75C10.7574 7.75 9.75 8.75736 9.75 10C9.75 11.2426 10.7574 12.25 12 12.25C13.2426 12.25 14.25 11.2426 14.25 10C14.25 8.75736 13.2426 7.75 12 7.75ZM8.25 10C8.25 7.92893 9.92893 6.25 12 6.25C14.0711 6.25 15.75 7.92893 15.75 10C15.75 12.0711 14.0711 13.75 12 13.75C9.92893 13.75 8.25 12.0711 8.25 10Z"/>
</symbol><symbol viewBox="0 0 24 24" id="metro" xmlns="http://www.w3.org/2000/svg">
    <path d="M21.0491 17.0434L16.1316 5L11.9851 12.0414L7.83865 5L2.92114 17.0473H1.5V18.8576H8.905V17.0473H7.80892L8.87527 14.0557L11.9851 19L15.095 14.0557L16.1614 17.0473H15.0653V18.8576H22.5V17.0473L21.0491 17.0434Z"/>
</symbol><symbol viewBox="0 0 24 24" id="minus" xmlns="http://www.w3.org/2000/svg">
    <path d="M3.75 12H20.25" stroke-width="1.5" stroke-linecap="round" stroke-linejoin="round"/>
</symbol><symbol viewBox="0 0 24 24" id="open" xmlns="http://www.w3.org/2000/svg">
    <path d="M12 1.25H11.9426C9.63423 1.24999 7.82519 1.24998 6.41371 1.43975C4.96897 1.63399 3.82895 2.03933 2.93414 2.93414C2.03933 3.82895 1.63399 4.96897 1.43975 6.41371C1.24998 7.82519 1.24999 9.63423 1.25 11.9426V12.0574C1.24999 14.3658 1.24998 16.1748 1.43975 17.5863C1.63399 19.031 2.03933 20.1711 2.93414 21.0659C3.82895 21.9607 4.96897 22.366 6.41371 22.5603C7.82519 22.75 9.63423 22.75 11.9426 22.75H12.0574C14.3658 22.75 16.1748 22.75 17.5863 22.5603C19.031 22.366 20.1711 21.9607 21.0659 21.0659C21.9607 20.1711 22.366 19.031 22.5603 17.5863C22.75 16.1748 22.75 14.3658 22.75 12.0574V12C22.75 11.5858 22.4142 11.25 22 11.25C21.5858 11.25 21.25 11.5858 21.25 12C21.25 14.3782 21.2484 16.0864 21.0736 17.3864C20.9018 18.6648 20.5749 19.4355 20.0052 20.0052C19.4355 20.5749 18.6648 20.9018 17.3864 21.0736C16.0864 21.2484 14.3782 21.25 12 21.25C9.62178 21.25 7.91356 21.2484 6.61358 21.0736C5.33517 20.9018 4.56445 20.5749 3.9948 20.0052C3.42514 19.4355 3.09825 18.6648 2.92637 17.3864C2.75159 16.0864 2.75 14.3782 2.75 12C2.75 9.62178 2.75159 7.91356 2.92637 6.61358C3.09825 5.33517 3.42514 4.56445 3.9948 3.9948C4.56445 3.42514 5.33517 3.09825 6.61358 2.92637C7.91356 2.75159 9.62178 2.75 12 2.75C12.4142 2.75 12.75 2.41421 12.75 2C12.75 1.58579 12.4142 1.25 12 1.25Z"/>
    <path d="M12.4697 10.4697C12.1768 10.7626 12.1768 11.2374 12.4697 11.5303C12.7626 11.8232 13.2374 11.8232 13.5303 11.5303L21.25 3.81066V7.34375C21.25 7.75796 21.5858 8.09375 22 8.09375C22.4142 8.09375 22.75 7.75796 22.75 7.34375V2C22.75 1.58579 22.4142 1.25 22 1.25H16.6562C16.242 1.25 15.9062 1.58579 15.9062 2C15.9062 2.41421 16.242 2.75 16.6562 2.75H20.1893L12.4697 10.4697Z"/>
</symbol><symbol viewBox="0 0 24 24" id="phone-fill" xmlns="http://www.w3.org/2000/svg">
    <path d="M10.0376 5.31617L10.6866 6.4791C11.2723 7.52858 11.0372 8.90533 10.1147 9.8278C10.1147 9.8278 8.99578 10.9467 11.0245 12.9755C13.0532 15.0042 14.1722 13.8853 14.1722 13.8853C15.0947 12.9628 16.4714 12.7277 17.5209 13.3134L18.6838 13.9624C20.2686 14.8468 20.4557 17.0692 19.0628 18.4622C18.2258 19.2992 17.2004 19.9505 16.0669 19.9934C14.1588 20.0658 10.9183 19.5829 7.6677 16.3323C4.41713 13.0817 3.93421 9.84122 4.00655 7.93309C4.04952 6.7996 4.7008 5.77423 5.53781 4.93723C6.93076 3.54428 9.15317 3.73144 10.0376 5.31617Z"/>
</symbol><symbol viewBox="0 0 24 24" id="phone-stroke" xmlns="http://www.w3.org/2000/svg">
    <path fill-rule="evenodd" clip-rule="evenodd" d="M6.00745 3.40686C7.68752 1.72679 10.5227 1.85451 11.6925 3.95063L12.3415 5.11356C13.1054 6.48238 12.7799 8.20946 11.6616 9.34143C11.6467 9.36184 11.5677 9.47677 11.5579 9.67758C11.5454 9.93391 11.6364 10.5267 12.5548 11.4451C13.4729 12.3632 14.0656 12.4545 14.3221 12.442C14.5231 12.4322 14.6381 12.3533 14.6585 12.3383C15.7905 11.2201 17.5176 10.8945 18.8864 11.6584L20.0493 12.3075C22.1454 13.4773 22.2731 16.3124 20.5931 17.9925C19.6944 18.8911 18.4995 19.6896 17.0953 19.7429C15.0144 19.8218 11.5591 19.2844 8.13735 15.8626C4.71556 12.4408 4.17818 8.98556 4.25706 6.90463C4.3103 5.50044 5.10879 4.30552 6.00745 3.40686ZM10.3827 4.68163C9.78363 3.60828 8.17394 3.36169 7.06811 4.46752C6.29276 5.24287 5.7887 6.09868 5.75599 6.96146C5.6902 8.6968 6.11864 11.7226 9.19801 14.8019C12.2774 17.8813 15.3031 18.3097 17.0385 18.2439C17.9013 18.2112 18.7571 17.7072 19.5324 16.9318C20.6382 15.826 20.3916 14.2163 19.3183 13.6173L18.1554 12.9683C17.432 12.5645 16.4158 12.7023 15.7025 13.4156L15.7023 13.4158C15.6322 13.4858 15.1864 13.9018 14.395 13.9403C13.5847 13.9797 12.604 13.6156 11.4942 12.5058C10.384 11.3956 10.02 10.4146 10.0597 9.60423C10.0985 8.81271 10.5147 8.36711 10.5843 8.29746L10.5844 8.29743C11.2977 7.58411 11.4354 6.56797 11.0317 5.84456L10.3827 4.68163Z"/>
</symbol><symbol viewBox="0 0 24 24" id="settings" xmlns="http://www.w3.org/2000/svg">
    <path fill-rule="evenodd" clip-rule="evenodd" d="M13.2788 2.15224C12.9085 2 12.439 2 11.5 2C10.561 2 10.0915 2 9.72119 2.15224C9.2274 2.35523 8.83509 2.74458 8.63056 3.23463C8.53719 3.45834 8.50065 3.7185 8.48635 4.09799C8.46534 4.65568 8.17716 5.17189 7.69017 5.45093C7.20318 5.72996 6.60864 5.71954 6.11149 5.45876C5.77318 5.2813 5.52789 5.18262 5.28599 5.15102C4.75609 5.08178 4.22018 5.22429 3.79616 5.5472C3.47814 5.78938 3.24339 6.1929 2.7739 6.99993C2.30441 7.80697 2.06967 8.21048 2.01735 8.60491C1.94758 9.1308 2.09118 9.66266 2.41655 10.0835C2.56506 10.2756 2.77377 10.437 3.0977 10.639C3.57391 10.936 3.88032 11.4419 3.88029 12C3.88026 12.5581 3.57386 13.0639 3.0977 13.3608C2.77372 13.5629 2.56497 13.7244 2.41645 13.9165C2.09108 14.3373 1.94749 14.8691 2.01725 15.395C2.06957 15.7894 2.30432 16.193 2.7738 17C3.24329 17.807 3.47804 18.2106 3.79606 18.4527C4.22008 18.7756 4.75599 18.9181 5.28589 18.8489C5.52778 18.8173 5.77305 18.7186 6.11133 18.5412C6.60852 18.2804 7.2031 18.27 7.69012 18.549C8.17714 18.8281 8.46533 19.3443 8.48635 19.9021C8.50065 20.2815 8.53719 20.5417 8.63056 20.7654C8.83509 21.2554 9.2274 21.6448 9.72119 21.8478C10.0915 22 10.561 22 11.5 22C12.439 22 12.9085 22 13.2788 21.8478C13.7726 21.6448 14.1649 21.2554 14.3694 20.7654C14.4628 20.5417 14.4994 20.2815 14.5137 19.902C14.5347 19.3443 14.8228 18.8281 15.3098 18.549C15.7968 18.2699 16.3914 18.2804 16.8886 18.5412C17.2269 18.7186 17.4721 18.8172 17.714 18.8488C18.2439 18.9181 18.7798 18.7756 19.2038 18.4527C19.5219 18.2105 19.7566 17.807 20.2261 16.9999C20.6956 16.1929 20.9303 15.7894 20.9827 15.395C21.0524 14.8691 20.9088 14.3372 20.5835 13.9164C20.4349 13.7243 20.2262 13.5628 19.9022 13.3608C19.4261 13.0639 19.1197 12.558 19.1197 11.9999C19.1197 11.4418 19.4261 10.9361 19.9022 10.6392C20.2263 10.4371 20.435 10.2757 20.5836 10.0835C20.9089 9.66273 21.0525 9.13087 20.9828 8.60497C20.9304 8.21055 20.6957 7.80703 20.2262 7C19.7567 6.19297 19.522 5.78945 19.2039 5.54727C18.7799 5.22436 18.244 5.08185 17.7141 5.15109C17.4722 5.18269 17.2269 5.28136 16.8887 5.4588C16.3915 5.71959 15.7969 5.73002 15.3099 5.45096C14.8229 5.17191 14.5347 4.65566 14.5136 4.09794C14.4993 3.71848 14.4628 3.45833 14.3694 3.23463C14.1649 2.74458 13.7726 2.35523 13.2788 2.15224ZM11.5 15C13.1695 15 14.5228 13.6569 14.5228 12C14.5228 10.3431 13.1695 9 11.5 9C9.83053 9 8.47716 10.3431 8.47716 12C8.47716 13.6569 9.83053 15 11.5 15Z"/>
</symbol><symbol viewBox="0 0 22 22" id="share" xmlns="http://www.w3.org/2000/svg">
    <path d="M15.125 13.0625L19.25 8.9375M19.25 8.9375L15.125 4.8125M19.25 8.9375H14.4375C12.6083 8.93764 10.831 9.54543 9.38476 10.6654C7.93851 11.7854 6.9053 13.354 6.44742 15.125M16.5 18.5625H3.4375C3.25516 18.5625 3.0803 18.4901 2.95136 18.3611C2.82243 18.2322 2.75 18.0573 2.75 17.875V7.5625" stroke-width="1.5" stroke-linecap="round" stroke-linejoin="round"/>
</symbol><symbol viewBox="0 0 80 80" id="success" xmlns="http://www.w3.org/2000/svg">
    <path d="M80 21.7172C80 23.064 79.5183 24.2088 78.5548 25.1515L41.1871 61.7172L34.1677 68.5859C33.2043 69.5286 32.0344 70 30.6581 70C29.2817 70 28.1118 69.5286 27.1484 68.5859L20.129 61.7172L1.44516 43.4343C0.48172 42.4916 0 41.3468 0 40C0 38.6532 0.48172 37.5084 1.44516 36.5657L8.46452 29.697C9.42796 28.7542 10.5978 28.2828 11.9742 28.2828C13.3505 28.2828 14.5204 28.7542 15.4839 29.697L30.6581 44.596L64.5161 11.4141C65.4796 10.4714 66.6495 10 68.0258 10C69.4022 10 70.572 10.4714 71.5355 11.4141L78.5548 18.2828C79.5183 19.2256 80 20.3704 80 21.7172Z"/>
</symbol><symbol viewBox="0 0 20 20" id="tag-last" xmlns="http://www.w3.org/2000/svg">
    <path d="M4.72477 8.26193L7.27655 4.8094C8.92602 2.57769 9.75075 1.46183 10.5202 1.69764C11.2897 1.93344 11.2897 3.30204 11.2897 6.03922V6.29731C11.2897 7.28455 11.2897 7.77818 11.6051 8.08781L11.6218 8.10384C11.9441 8.40693 12.4578 8.40693 13.4854 8.40693C15.3344 8.40693 16.259 8.40693 16.5714 8.96772C16.5766 8.977 16.5816 8.98636 16.5865 8.99579C16.8815 9.56526 16.3462 10.2895 15.2755 11.738L12.7237 15.1905C11.0742 17.4222 10.2495 18.5381 9.48003 18.3023C8.71056 18.0665 8.71058 16.6979 8.71062 13.9606L8.71062 13.7027C8.71064 12.7154 8.71065 12.2218 8.3952 11.9121L8.37851 11.8961C8.05625 11.593 7.54248 11.593 6.51496 11.593C4.6659 11.593 3.74137 11.593 3.42891 11.0322C3.42374 11.0229 3.41871 11.0136 3.41382 11.0042C3.11886 10.4347 3.65417 9.71044 4.72477 8.26193Z" stroke-width="1.5"/>
</symbol><symbol viewBox="0 0 20 20" id="tag-left" xmlns="http://www.w3.org/2000/svg">
    <path d="M9.99984 9.99996L7.53509 12.4407C5.09968 14.8525 3.88198 16.0583 4.22288 17.0987C4.25218 17.1882 4.28858 17.2751 4.33171 17.3589C4.83355 18.3333 6.55565 18.3333 9.99984 18.3333C13.444 18.3333 15.1661 18.3333 15.668 17.3589C15.7111 17.2751 15.7475 17.1882 15.7768 17.0987C16.1177 16.0583 14.9 14.8525 12.4646 12.4407L9.99984 9.99996ZM9.99984 9.99996L12.4646 7.55918C14.9 5.14746 16.1177 3.9416 15.7768 2.9012C15.7475 2.81177 15.7111 2.72477 15.668 2.64101C15.1661 1.66663 13.444 1.66663 9.99984 1.66663C6.55565 1.66663 4.83355 1.66663 4.33171 2.64101C4.28858 2.72477 4.25218 2.81177 4.22288 2.9012C3.88198 3.9416 5.09968 5.14746 7.53509 7.55918L9.99984 9.99996Z" stroke-width="1.5"/>
</symbol><symbol viewBox="0 0 20 20" id="tag-new" xmlns="http://www.w3.org/2000/svg">
    <g clip-path="url(#bdclip0_976_15668)">
        <path d="M7.62747 4.50694C8.68302 2.6134 9.21079 1.66663 9.99984 1.66663C10.7889 1.66663 11.3167 2.6134 12.3722 4.50694L12.6453 4.99682C12.9452 5.53491 13.0952 5.80395 13.3291 5.98147C13.5629 6.15898 13.8541 6.22488 14.4366 6.35667L14.9669 6.47665C17.0166 6.94042 18.0415 7.17231 18.2853 7.9564C18.5292 8.7405 17.8305 9.55752 16.4331 11.1916L16.0716 11.6143C15.6745 12.0787 15.4759 12.3108 15.3866 12.5981C15.2973 12.8853 15.3273 13.1951 15.3874 13.8146L15.442 14.3786C15.6533 16.5588 15.7589 17.6489 15.1205 18.1335C14.4822 18.6181 13.5226 18.1762 11.6034 17.2926L11.1069 17.064C10.5616 16.8129 10.2889 16.6873 9.99984 16.6873C9.71079 16.6873 9.43811 16.8129 8.89274 17.064L8.39623 17.2926C6.47707 18.1762 5.51748 18.6181 4.87913 18.1335C4.24077 17.6489 4.3464 16.5588 4.55767 14.3786L4.61232 13.8146C4.67236 13.1951 4.70238 12.8853 4.61306 12.5981C4.52374 12.3108 4.32519 12.0787 3.9281 11.6143L3.56659 11.1916C2.16921 9.55752 1.47052 8.7405 1.71435 7.9564C1.95819 7.17231 2.98305 6.94042 5.03278 6.47665L5.56308 6.35667C6.14555 6.22488 6.43678 6.15898 6.67062 5.98147C6.90447 5.80395 7.05444 5.53491 7.35439 4.99682L7.62747 4.50694Z" stroke-width="1.5"/>
    </g>
    <defs>
        <clipPath id="bdclip0_976_15668">
            <rect width="20" height="20" rx="5"/>
        </clipPath>
    </defs>
</symbol><symbol viewBox="0 0 20 20" id="tag-passed" xmlns="http://www.w3.org/2000/svg">
    <g clip-path="url(#beclip0_976_15667)">
        <path d="M15.4165 4.58337L4.58319 15.4165" stroke-width="1.5" stroke-linecap="round"/>
        <circle cx="9.99984" cy="9.99996" r="8.33333" stroke-width="1.5"/>
    </g>
    <defs>
        <clipPath id="beclip0_976_15667">
            <rect width="20" height="20"/>
        </clipPath>
    </defs>
</symbol><symbol viewBox="0 0 20 20" id="tag-waiting" xmlns="http://www.w3.org/2000/svg">
    <path fill-rule="evenodd" clip-rule="evenodd" d="M9.99984 2.29163C5.74264 2.29163 2.2915 5.74276 2.2915 9.99996C2.2915 14.2572 5.74264 17.7083 9.99984 17.7083C14.257 17.7083 17.7082 14.2572 17.7082 9.99996C17.7082 5.74276 14.257 2.29163 9.99984 2.29163ZM1.0415 9.99996C1.0415 5.05241 5.05229 1.04163 9.99984 1.04163C14.9474 1.04163 18.9582 5.05241 18.9582 9.99996C18.9582 14.9475 14.9474 18.9583 9.99984 18.9583C5.05229 18.9583 1.0415 14.9475 1.0415 9.99996ZM9.99984 6.04163C10.345 6.04163 10.6248 6.32145 10.6248 6.66663V9.74108L12.5251 11.6414C12.7692 11.8854 12.7692 12.2812 12.5251 12.5252C12.281 12.7693 11.8853 12.7693 11.6412 12.5252L9.5579 10.4419C9.44069 10.3247 9.37484 10.1657 9.37484 9.99996V6.66663C9.37484 6.32145 9.65466 6.04163 9.99984 6.04163Z"/>
</symbol><symbol viewBox="0 0 24 24" id="telegram" xmlns="http://www.w3.org/2000/svg">
    <path d="M12 2C6.48 2 2 6.48 2 12C2 17.52 6.48 22 12 22C17.52 22 22 17.52 22 12C22 6.48 17.52 2 12 2ZM16.64 8.8C16.49 10.38 15.84 14.22 15.51 15.99C15.37 16.74 15.09 16.99 14.83 17.02C14.25 17.07 13.81 16.64 13.25 16.27C12.37 15.69 11.87 15.33 11.02 14.77C10.03 14.12 10.67 13.76 11.24 13.18C11.39 13.03 13.95 10.7 14 10.49C14.0069 10.4582 14.006 10.4252 13.9973 10.3938C13.9886 10.3624 13.9724 10.3337 13.95 10.31C13.89 10.26 13.81 10.28 13.74 10.29C13.65 10.31 12.25 11.24 9.52 13.08C9.12 13.35 8.76 13.49 8.44 13.48C8.08 13.47 7.4 13.28 6.89 13.11C6.26 12.91 5.77 12.8 5.81 12.45C5.83 12.27 6.08 12.09 6.55 11.9C9.47 10.63 11.41 9.79 12.38 9.39C15.16 8.23 15.73 8.03 16.11 8.03C16.19 8.03 16.38 8.05 16.5 8.15C16.6 8.23 16.63 8.34 16.64 8.42C16.63 8.48 16.65 8.66 16.64 8.8Z"/>
</symbol><symbol viewBox="0 0 24 24" id="walk" xmlns="http://www.w3.org/2000/svg">
    <path d="M13.7505 6.5C14.3473 6.5 14.9196 6.26295 15.3415 5.84099C15.7635 5.41903 16.0005 4.84674 16.0005 4.25C16.0005 3.65326 15.7635 3.08097 15.3415 2.65901C14.9196 2.23705 14.3473 2 13.7505 2C13.1538 2 12.5815 2.23705 12.1595 2.65901C11.7376 3.08097 11.5005 3.65326 11.5005 4.25C11.5005 4.84674 11.7376 5.41903 12.1595 5.84099C12.5815 6.26295 13.1538 6.5 13.7505 6.5ZM13.7765 12.247L13.2675 14.427L15.8885 16.968L16.9625 20.725C16.9986 20.8513 17.0095 20.9834 16.9946 21.1139C16.9796 21.2444 16.9391 21.3706 16.8754 21.4854C16.8116 21.6002 16.7259 21.7014 16.623 21.7831C16.5202 21.8648 16.4023 21.9254 16.276 21.9615C16.1498 21.9976 16.0176 22.0085 15.8871 21.9935C15.7567 21.9786 15.6304 21.9381 15.5156 21.8743C15.4008 21.8106 15.2996 21.7249 15.218 21.622C15.1363 21.5192 15.0756 21.4013 15.0395 21.275L14.1125 18.032L9.46553 13.527C9.32978 13.4269 9.22155 13.2941 9.15092 13.1409C9.08028 12.9878 9.04953 12.8192 9.06153 12.651L9.25653 9.915C8.56353 10.698 7.87753 11.821 7.46253 13.275C7.3896 13.53 7.21835 13.7456 6.98646 13.8743C6.75457 14.0031 6.48104 14.0344 6.22603 13.9615C5.97103 13.8886 5.75544 13.7173 5.62669 13.4854C5.49795 13.2535 5.4666 12.98 5.53953 12.725C6.08553 10.814 7.03153 9.333 8.00953 8.318C8.44713 7.8558 8.94573 7.45544 9.49153 7.128C9.95253 6.861 10.4835 6.65 11.0015 6.65C11.0515 6.65 11.1012 6.65367 11.1505 6.661C11.2172 6.65967 11.2839 6.662 11.3505 6.668C11.893 6.7164 12.4139 6.90329 12.8634 7.21076C13.3128 7.51824 13.6758 7.93599 13.9175 8.424C13.9402 8.45467 13.9609 8.488 13.9795 8.524L15.2095 10.788C15.3494 11.0456 15.5441 11.2694 15.78 11.4434C16.0159 11.6174 16.2871 11.7374 16.5745 11.795L17.6965 12.02C17.829 12.0418 17.9557 12.09 18.0691 12.1618C18.1825 12.2336 18.2803 12.3274 18.3567 12.4378C18.433 12.5482 18.4864 12.6728 18.5136 12.8043C18.5407 12.9357 18.5412 13.0713 18.5149 13.2029C18.4885 13.3345 18.436 13.4594 18.3603 13.5703C18.2847 13.6812 18.1875 13.7757 18.0746 13.8482C17.9616 13.9207 17.8352 13.9698 17.703 13.9924C17.5707 14.0151 17.4352 14.0108 17.3045 13.98L16.1825 13.756C15.2228 13.564 14.3668 13.0277 13.7765 12.247Z"/>
    <path d="M8.14529 18.404L9.35329 14.778L10.9493 16.316L10.0423 19.036C9.9205 19.402 9.69546 19.7249 9.39429 19.966L7.12529 21.78C7.02273 21.862 6.90501 21.9231 6.77884 21.9597C6.65268 21.9963 6.52054 22.0076 6.38998 21.9931C6.25943 21.9787 6.133 21.9386 6.01792 21.8753C5.90284 21.8119 5.80137 21.7265 5.71929 21.624C5.63722 21.5214 5.57615 21.4037 5.53957 21.2775C5.50299 21.1513 5.49161 21.0192 5.5061 20.8886C5.52059 20.7581 5.56065 20.6317 5.62399 20.5166C5.68734 20.4015 5.77273 20.3 5.87529 20.218L8.14529 18.404Z"/>
</symbol><symbol viewBox="0 0 24 24" id="whatsapp" xmlns="http://www.w3.org/2000/svg">
    <path d="M12.001 2C17.524 2 22.001 6.477 22.001 12C22.001 17.523 17.524 22 12.001 22C10.2337 22.003 8.49757 21.5353 6.97099 20.645L2.00499 22L3.35699 17.032C2.46595 15.5049 1.99789 13.768 2.00099 12C2.00099 6.477 6.47799 2 12.001 2ZM8.59299 7.3L8.39299 7.308C8.26368 7.31691 8.13734 7.35087 8.02099 7.408C7.91257 7.46951 7.81355 7.5463 7.72699 7.636C7.60699 7.749 7.53899 7.847 7.46599 7.942C7.09611 8.4229 6.89696 9.01331 6.89999 9.62C6.90199 10.11 7.02999 10.587 7.22999 11.033C7.63899 11.935 8.31199 12.89 9.19999 13.775C9.41399 13.988 9.62399 14.202 9.84999 14.401C10.9534 15.3724 12.2683 16.073 13.69 16.447L14.258 16.534C14.443 16.544 14.628 16.53 14.814 16.521C15.1052 16.5056 15.3895 16.4268 15.647 16.29C15.7778 16.2223 15.9056 16.1489 16.03 16.07C16.03 16.07 16.0723 16.0413 16.155 15.98C16.29 15.88 16.373 15.809 16.485 15.692C16.569 15.6053 16.639 15.5047 16.695 15.39C16.773 15.227 16.851 14.916 16.883 14.657C16.907 14.459 16.9 14.351 16.897 14.284C16.893 14.177 16.804 14.066 16.707 14.019L16.125 13.758C16.125 13.758 15.255 13.379 14.723 13.137C14.6673 13.1128 14.6077 13.0989 14.547 13.096C14.4786 13.0888 14.4094 13.0965 14.3442 13.1184C14.279 13.1403 14.2192 13.176 14.169 13.223C14.164 13.221 14.097 13.278 13.374 14.154C13.3325 14.2098 13.2753 14.2519 13.2098 14.2751C13.1443 14.2982 13.0733 14.3013 13.006 14.284C12.9408 14.2666 12.877 14.2446 12.815 14.218C12.691 14.166 12.648 14.146 12.563 14.11C11.9889 13.8599 11.4574 13.5215 10.988 13.107C10.862 12.997 10.745 12.877 10.625 12.761C10.2316 12.3842 9.88874 11.958 9.60499 11.493L9.54599 11.398C9.50425 11.3338 9.47003 11.265 9.44399 11.193C9.40599 11.046 9.50499 10.928 9.50499 10.928C9.50499 10.928 9.74799 10.662 9.86099 10.518C9.97099 10.378 10.064 10.242 10.124 10.145C10.242 9.955 10.279 9.76 10.217 9.609C9.93699 8.925 9.64766 8.24467 9.34899 7.568C9.28999 7.434 9.11499 7.338 8.95599 7.319C8.90199 7.31233 8.84799 7.307 8.79399 7.303C8.65972 7.2953 8.52508 7.29664 8.39099 7.307L8.59299 7.3Z"/>
</symbol></svg>